<svg version="1.1" xmlns="http://www.w3.org/2000/svg" xmlns:xlink="http://www.w3.org/1999/xlink" width="652" height="556"><defs/><g><text fill="#eeeeee" stroke="none" font-family="Arial" font-size="24px" font-style="normal" font-weight="normal" text-decoration="none" x="0" y="0">UNREGISTERED</text><text fill="#eeeeee" stroke="none" font-family="Arial" font-size="24px" font-style="normal" font-weight="normal" text-decoration="none" x="0" y="30">UNREGISTERED</text><text fill="#eeeeee" stroke="none" font-family="Arial" font-size="24px" font-style="normal" font-weight="normal" text-decoration="none" x="0" y="60">UNREGISTERED</text><text fill="#eeeeee" stroke="none" font-family="Arial" font-size="24px" font-style="normal" font-weight="normal" text-decoration="none" x="0" y="90">UNREGISTERED</text><text fill="#eeeeee" stroke="none" font-family="Arial" font-size="24px" font-style="normal" font-weight="normal" text-decoration="none" x="0" y="120">UNREGISTERED</text><text fill="#eeeeee" stroke="none" font-family="Arial" font-size="24px" font-style="normal" font-weight="normal" text-decoration="none" x="0" y="150">UNREGISTERED</text><text fill="#eeeeee" stroke="none" font-family="Arial" font-size="24px" font-style="normal" font-weight="normal" text-decoration="none" x="0" y="180">UNREGISTERED</text><text fill="#eeeeee" stroke="none" font-family="Arial" font-size="24px" font-style="normal" font-weight="normal" text-decoration="none" x="0" y="210">UNREGISTERED</text><text fill="#eeeeee" stroke="none" font-family="Arial" font-size="24px" font-style="normal" font-weight="normal" text-decoration="none" x="0" y="240">UNREGISTERED</text><text fill="#eeeeee" stroke="none" font-family="Arial" font-size="24px" font-style="normal" font-weight="normal" text-decoration="none" x="0" y="270">UNREGISTERED</text><text fill="#eeeeee" stroke="none" font-family="Arial" font-size="24px" font-style="normal" font-weight="normal" text-decoration="none" x="0" y="300">UNREGISTERED</text><text fill="#eeeeee" stroke="none" font-family="Arial" font-size="24px" font-style="normal" font-weight="normal" text-decoration="none" x="0" y="330">UNREGISTERED</text><text fill="#eeeeee" stroke="none" font-family="Arial" font-size="24px" font-style="normal" font-weight="normal" text-decoration="none" x="0" y="360">UNREGISTERED</text><text fill="#eeeeee" stroke="none" font-family="Arial" font-size="24px" font-style="normal" font-weight="normal" text-decoration="none" x="0" y="390">UNREGISTERED</text><text fill="#eeeeee" stroke="none" font-family="Arial" font-size="24px" font-style="normal" font-weight="normal" text-decoration="none" x="0" y="420">UNREGISTERED</text><text fill="#eeeeee" stroke="none" font-family="Arial" font-size="24px" font-style="normal" font-weight="normal" text-decoration="none" x="0" y="450">UNREGISTERED</text><text fill="#eeeeee" stroke="none" font-family="Arial" font-size="24px" font-style="normal" font-weight="normal" text-decoration="none" x="0" y="480">UNREGISTERED</text><text fill="#eeeeee" stroke="none" font-family="Arial" font-size="24px" font-style="normal" font-weight="normal" text-decoration="none" x="0" y="510">UNREGISTERED</text><text fill="#eeeeee" stroke="none" font-family="Arial" font-size="24px" font-style="normal" font-weight="normal" text-decoration="none" x="0" y="540">UNREGISTERED</text><text fill="#eeeeee" stroke="none" font-family="Arial" font-size="24px" font-style="normal" font-weight="normal" text-decoration="none" x="200" y="0">UNREGISTERED</text><text fill="#eeeeee" stroke="none" font-family="Arial" font-size="24px" font-style="normal" font-weight="normal" text-decoration="none" x="200" y="30">UNREGISTERED</text><text fill="#eeeeee" stroke="none" font-family="Arial" font-size="24px" font-style="normal" font-weight="normal" text-decoration="none" x="200" y="60">UNREGISTERED</text><text fill="#eeeeee" stroke="none" font-family="Arial" font-size="24px" font-style="normal" font-weight="normal" text-decoration="none" x="200" y="90">UNREGISTERED</text><text fill="#eeeeee" stroke="none" font-family="Arial" font-size="24px" font-style="normal" font-weight="normal" text-decoration="none" x="200" y="120">UNREGISTERED</text><text fill="#eeeeee" stroke="none" font-family="Arial" font-size="24px" font-style="normal" font-weight="normal" text-decoration="none" x="200" y="150">UNREGISTERED</text><text fill="#eeeeee" stroke="none" font-family="Arial" font-size="24px" font-style="normal" font-weight="normal" text-decoration="none" x="200" y="180">UNREGISTERED</text><text fill="#eeeeee" stroke="none" font-family="Arial" font-size="24px" font-style="normal" font-weight="normal" text-decoration="none" x="200" y="210">UNREGISTERED</text><text fill="#eeeeee" stroke="none" font-family="Arial" font-size="24px" font-style="normal" font-weight="normal" text-decoration="none" x="200" y="240">UNREGISTERED</text><text fill="#eeeeee" stroke="none" font-family="Arial" font-size="24px" font-style="normal" font-weight="normal" text-decoration="none" x="200" y="270">UNREGISTERED</text><text fill="#eeeeee" stroke="none" font-family="Arial" font-size="24px" font-style="normal" font-weight="normal" text-decoration="none" x="200" y="300">UNREGISTERED</text><text fill="#eeeeee" stroke="none" font-family="Arial" font-size="24px" font-style="normal" font-weight="normal" text-decoration="none" x="200" y="330">UNREGISTERED</text><text fill="#eeeeee" stroke="none" font-family="Arial" font-size="24px" font-style="normal" font-weight="normal" text-decoration="none" x="200" y="360">UNREGISTERED</text><text fill="#eeeeee" stroke="none" font-family="Arial" font-size="24px" font-style="normal" font-weight="normal" text-decoration="none" x="200" y="390">UNREGISTERED</text><text fill="#eeeeee" stroke="none" font-family="Arial" font-size="24px" font-style="normal" font-weight="normal" text-decoration="none" x="200" y="420">UNREGISTERED</text><text fill="#eeeeee" stroke="none" font-family="Arial" font-size="24px" font-style="normal" font-weight="normal" text-decoration="none" x="200" y="450">UNREGISTERED</text><text fill="#eeeeee" stroke="none" font-family="Arial" font-size="24px" font-style="normal" font-weight="normal" text-decoration="none" x="200" y="480">UNREGISTERED</text><text fill="#eeeeee" stroke="none" font-family="Arial" font-size="24px" font-style="normal" font-weight="normal" text-decoration="none" x="200" y="510">UNREGISTERED</text><text fill="#eeeeee" stroke="none" font-family="Arial" font-size="24px" font-style="normal" font-weight="normal" text-decoration="none" x="200" y="540">UNREGISTERED</text><text fill="#eeeeee" stroke="none" font-family="Arial" font-size="24px" font-style="normal" font-weight="normal" text-decoration="none" x="400" y="0">UNREGISTERED</text><text fill="#eeeeee" stroke="none" font-family="Arial" font-size="24px" font-style="normal" font-weight="normal" text-decoration="none" x="400" y="30">UNREGISTERED</text><text fill="#eeeeee" stroke="none" font-family="Arial" font-size="24px" font-style="normal" font-weight="normal" text-decoration="none" x="400" y="60">UNREGISTERED</text><text fill="#eeeeee" stroke="none" font-family="Arial" font-size="24px" font-style="normal" font-weight="normal" text-decoration="none" x="400" y="90">UNREGISTERED</text><text fill="#eeeeee" stroke="none" font-family="Arial" font-size="24px" font-style="normal" font-weight="normal" text-decoration="none" x="400" y="120">UNREGISTERED</text><text fill="#eeeeee" stroke="none" font-family="Arial" font-size="24px" font-style="normal" font-weight="normal" text-decoration="none" x="400" y="150">UNREGISTERED</text><text fill="#eeeeee" stroke="none" font-family="Arial" font-size="24px" font-style="normal" font-weight="normal" text-decoration="none" x="400" y="180">UNREGISTERED</text><text fill="#eeeeee" stroke="none" font-family="Arial" font-size="24px" font-style="normal" font-weight="normal" text-decoration="none" x="400" y="210">UNREGISTERED</text><text fill="#eeeeee" stroke="none" font-family="Arial" font-size="24px" font-style="normal" font-weight="normal" text-decoration="none" x="400" y="240">UNREGISTERED</text><text fill="#eeeeee" stroke="none" font-family="Arial" font-size="24px" font-style="normal" font-weight="normal" text-decoration="none" x="400" y="270">UNREGISTERED</text><text fill="#eeeeee" stroke="none" font-family="Arial" font-size="24px" font-style="normal" font-weight="normal" text-decoration="none" x="400" y="300">UNREGISTERED</text><text fill="#eeeeee" stroke="none" font-family="Arial" font-size="24px" font-style="normal" font-weight="normal" text-decoration="none" x="400" y="330">UNREGISTERED</text><text fill="#eeeeee" stroke="none" font-family="Arial" font-size="24px" font-style="normal" font-weight="normal" text-decoration="none" x="400" y="360">UNREGISTERED</text><text fill="#eeeeee" stroke="none" font-family="Arial" font-size="24px" font-style="normal" font-weight="normal" text-decoration="none" x="400" y="390">UNREGISTERED</text><text fill="#eeeeee" stroke="none" font-family="Arial" font-size="24px" font-style="normal" font-weight="normal" text-decoration="none" x="400" y="420">UNREGISTERED</text><text fill="#eeeeee" stroke="none" font-family="Arial" font-size="24px" font-style="normal" font-weight="normal" text-decoration="none" x="400" y="450">UNREGISTERED</text><text fill="#eeeeee" stroke="none" font-family="Arial" font-size="24px" font-style="normal" font-weight="normal" text-decoration="none" x="400" y="480">UNREGISTERED</text><text fill="#eeeeee" stroke="none" font-family="Arial" font-size="24px" font-style="normal" font-weight="normal" text-decoration="none" x="400" y="510">UNREGISTERED</text><text fill="#eeeeee" stroke="none" font-family="Arial" font-size="24px" font-style="normal" font-weight="normal" text-decoration="none" x="400" y="540">UNREGISTERED</text><text fill="#eeeeee" stroke="none" font-family="Arial" font-size="24px" font-style="normal" font-weight="normal" text-decoration="none" x="600" y="0">UNREGISTERED</text><text fill="#eeeeee" stroke="none" font-family="Arial" font-size="24px" font-style="normal" font-weight="normal" text-decoration="none" x="600" y="30">UNREGISTERED</text><text fill="#eeeeee" stroke="none" font-family="Arial" font-size="24px" font-style="normal" font-weight="normal" text-decoration="none" x="600" y="60">UNREGISTERED</text><text fill="#eeeeee" stroke="none" font-family="Arial" font-size="24px" font-style="normal" font-weight="normal" text-decoration="none" x="600" y="90">UNREGISTERED</text><text fill="#eeeeee" stroke="none" font-family="Arial" font-size="24px" font-style="normal" font-weight="normal" text-decoration="none" x="600" y="120">UNREGISTERED</text><text fill="#eeeeee" stroke="none" font-family="Arial" font-size="24px" font-style="normal" font-weight="normal" text-decoration="none" x="600" y="150">UNREGISTERED</text><text fill="#eeeeee" stroke="none" font-family="Arial" font-size="24px" font-style="normal" font-weight="normal" text-decoration="none" x="600" y="180">UNREGISTERED</text><text fill="#eeeeee" stroke="none" font-family="Arial" font-size="24px" font-style="normal" font-weight="normal" text-decoration="none" x="600" y="210">UNREGISTERED</text><text fill="#eeeeee" stroke="none" font-family="Arial" font-size="24px" font-style="normal" font-weight="normal" text-decoration="none" x="600" y="240">UNREGISTERED</text><text fill="#eeeeee" stroke="none" font-family="Arial" font-size="24px" font-style="normal" font-weight="normal" text-decoration="none" x="600" y="270">UNREGISTERED</text><text fill="#eeeeee" stroke="none" font-family="Arial" font-size="24px" font-style="normal" font-weight="normal" text-decoration="none" x="600" y="300">UNREGISTERED</text><text fill="#eeeeee" stroke="none" font-family="Arial" font-size="24px" font-style="normal" font-weight="normal" text-decoration="none" x="600" y="330">UNREGISTERED</text><text fill="#eeeeee" stroke="none" font-family="Arial" font-size="24px" font-style="normal" font-weight="normal" text-decoration="none" x="600" y="360">UNREGISTERED</text><text fill="#eeeeee" stroke="none" font-family="Arial" font-size="24px" font-style="normal" font-weight="normal" text-decoration="none" x="600" y="390">UNREGISTERED</text><text fill="#eeeeee" stroke="none" font-family="Arial" font-size="24px" font-style="normal" font-weight="normal" text-decoration="none" x="600" y="420">UNREGISTERED</text><text fill="#eeeeee" stroke="none" font-family="Arial" font-size="24px" font-style="normal" font-weight="normal" text-decoration="none" x="600" y="450">UNREGISTERED</text><text fill="#eeeeee" stroke="none" font-family="Arial" font-size="24px" font-style="normal" font-weight="normal" text-decoration="none" x="600" y="480">UNREGISTERED</text><text fill="#eeeeee" stroke="none" font-family="Arial" font-size="24px" font-style="normal" font-weight="normal" text-decoration="none" x="600" y="510">UNREGISTERED</text><text fill="#eeeeee" stroke="none" font-family="Arial" font-size="24px" font-style="normal" font-weight="normal" text-decoration="none" x="600" y="540">UNREGISTERED</text><g transform="translate(-590,-134) scale(1,1)"><rect fill="#C0C0C0" stroke="none" x="607" y="151" width="252.79999999999995" height="15" opacity="0.2"/></g><g transform="translate(-590,-134) scale(1,1)"><rect fill="#C0C0C0" stroke="none" x="607" y="165" width="632" height="522" opacity="0.2"/></g><g transform="translate(-590,-134) scale(1,1)"><rect fill="#ffffff" stroke="none" x="600" y="159" width="632" height="521"/></g><g transform="translate(-590,-134) scale(1,1)"><path fill="none" stroke="#000000" d="M 600 159 L 1232 159 L 1232 680 L 600 680 L 600 159 Z Z" stroke-miterlimit="10"/></g><g transform="translate(-590,-134) scale(1,1)"><rect fill="#ffffff" stroke="none" x="600" y="144" width="252.79999999999995" height="15"/></g><g transform="translate(-590,-134) scale(1,1)"><path fill="none" stroke="#000000" d="M 600 144 L 852.8 144 L 852.8 159 L 600 159 L 600 144 Z Z" stroke-miterlimit="10"/></g><g transform="translate(-590,-134) scale(1,1)"><rect fill="#ffffff" stroke="none" x="600" y="158" width="632" height="522"/></g><g transform="translate(-590,-134) scale(1,1)"><path fill="none" stroke="#000000" d="M 600 158 L 1232 158 L 1232 680 L 600 680 L 600 158 Z Z" stroke-miterlimit="10"/></g><g transform="translate(-590,-134) scale(1,1)"><g><path fill="none" stroke="none"/><text fill="#000000" stroke="none" font-family="Arial" font-size="13px" font-style="normal" font-weight="bold" text-decoration="none" x="884.201416015625" y="178.5">Application</text></g></g><g transform="translate(-590,-134) scale(1,1)"><rect fill="#C0C0C0" stroke="none" x="631" y="247" width="192" height="15" opacity="0.2"/></g><g transform="translate(-590,-134) scale(1,1)"><rect fill="#C0C0C0" stroke="none" x="631" y="261" width="480" height="186" opacity="0.2"/></g><g transform="translate(-590,-134) scale(1,1)"><rect fill="#ffffff" stroke="none" x="624" y="255" width="480" height="185"/></g><g transform="translate(-590,-134) scale(1,1)"><path fill="none" stroke="#000000" d="M 624 255 L 1104 255 L 1104 440 L 624 440 L 624 255 Z Z" stroke-miterlimit="10"/></g><g transform="translate(-590,-134) scale(1,1)"><rect fill="#ffffff" stroke="none" x="624" y="240" width="192" height="15"/></g><g transform="translate(-590,-134) scale(1,1)"><path fill="none" stroke="#000000" d="M 624 240 L 816 240 L 816 255 L 624 255 L 624 240 Z Z" stroke-miterlimit="10"/></g><g transform="translate(-590,-134) scale(1,1)"><rect fill="#ffffff" stroke="none" x="624" y="254" width="480" height="186"/></g><g transform="translate(-590,-134) scale(1,1)"><path fill="none" stroke="#000000" d="M 624 254 L 1104 254 L 1104 440 L 624 440 L 624 254 Z Z" stroke-miterlimit="10"/></g><g transform="translate(-590,-134) scale(1,1)"><g><path fill="none" stroke="none"/><text fill="#000000" stroke="none" font-family="Arial" font-size="13px" font-style="normal" font-weight="bold" text-decoration="none" x="827.1455078125" y="274.5">Components</text></g></g><g transform="translate(-590,-134) scale(1,1)"><rect fill="#C0C0C0" stroke="none" x="1119" y="247" width="41.59999999999991" height="15" opacity="0.2"/></g><g transform="translate(-590,-134) scale(1,1)"><rect fill="#C0C0C0" stroke="none" x="1119" y="261" width="104" height="130" opacity="0.2"/></g><g transform="translate(-590,-134) scale(1,1)"><rect fill="#ffffff" stroke="none" x="1112" y="255" width="104" height="129"/></g><g transform="translate(-590,-134) scale(1,1)"><path fill="none" stroke="#000000" d="M 1112 255 L 1216 255 L 1216 384 L 1112 384 L 1112 255 Z Z" stroke-miterlimit="10"/></g><g transform="translate(-590,-134) scale(1,1)"><rect fill="#ffffff" stroke="none" x="1112" y="240" width="41.59999999999991" height="15"/></g><g transform="translate(-590,-134) scale(1,1)"><path fill="none" stroke="#000000" d="M 1112 240 L 1153.6 240 L 1153.6 255 L 1112 255 L 1112 240 Z Z" stroke-miterlimit="10"/></g><g transform="translate(-590,-134) scale(1,1)"><rect fill="#ffffff" stroke="none" x="1112" y="254" width="104" height="130"/></g><g transform="translate(-590,-134) scale(1,1)"><path fill="none" stroke="#000000" d="M 1112 254 L 1216 254 L 1216 384 L 1112 384 L 1112 254 Z Z" stroke-miterlimit="10"/></g><g transform="translate(-590,-134) scale(1,1)"><g><path fill="none" stroke="none"/><text fill="#000000" stroke="none" font-family="Arial" font-size="13px" font-style="normal" font-weight="bold" text-decoration="none" x="1147.14697265625" y="274.5">DTOs</text></g></g><g transform="translate(-590,-134) scale(1,1)"><rect fill="#C0C0C0" stroke="none" x="903" y="455" width="99.20000000000005" height="15" opacity="0.2"/></g><g transform="translate(-590,-134) scale(1,1)"><rect fill="#C0C0C0" stroke="none" x="903" y="469" width="248" height="210" opacity="0.2"/></g><g transform="translate(-590,-134) scale(1,1)"><rect fill="#ffffff" stroke="none" x="896" y="463" width="248" height="209"/></g><g transform="translate(-590,-134) scale(1,1)"><path fill="none" stroke="#000000" d="M 896 463 L 1144 463 L 1144 672 L 896 672 L 896 463 Z Z" stroke-miterlimit="10"/></g><g transform="translate(-590,-134) scale(1,1)"><rect fill="#ffffff" stroke="none" x="896" y="448" width="99.20000000000005" height="15"/></g><g transform="translate(-590,-134) scale(1,1)"><path fill="none" stroke="#000000" d="M 896 448 L 995.2 448 L 995.2 463 L 896 463 L 896 448 Z Z" stroke-miterlimit="10"/></g><g transform="translate(-590,-134) scale(1,1)"><rect fill="#ffffff" stroke="none" x="896" y="462" width="248" height="210"/></g><g transform="translate(-590,-134) scale(1,1)"><path fill="none" stroke="#000000" d="M 896 462 L 1144 462 L 1144 672 L 896 672 L 896 462 Z Z" stroke-miterlimit="10"/></g><g transform="translate(-590,-134) scale(1,1)"><g><path fill="none" stroke="none"/><text fill="#000000" stroke="none" font-family="Arial" font-size="13px" font-style="normal" font-weight="bold" text-decoration="none" x="1002.77880859375" y="482.5">Views</text></g></g><g transform="translate(-590,-134) scale(1,1)"><rect fill="#C0C0C0" stroke="none" x="1127" y="335" width="51.60546875" height="44" opacity="0.2"/></g><g transform="translate(-590,-134) scale(1,1)"><rect fill="#ffffff" stroke="none" x="1120" y="328" width="51.60546875" height="44"/></g><g transform="translate(-590,-134) scale(1,1)"><path fill="none" stroke="#000000" d="M 1120 328 L 1171.60546875 328 L 1171.60546875 372 L 1120 372 L 1120 328 Z Z" stroke-miterlimit="10"/></g><g transform="translate(-590,-134) scale(1,1)"><path fill="none" stroke="#000000" d="M 1120 353 L 1171.60546875 353" stroke-miterlimit="10"/></g><g transform="translate(-590,-134) scale(1,1)"><path fill="none" stroke="#000000" d="M 1120 363 L 1171.60546875 363" stroke-miterlimit="10"/></g><g transform="translate(-590,-134) scale(1,1)"><g><path fill="none" stroke="none"/><text fill="#000000" stroke="none" font-family="Arial" font-size="13px" font-style="normal" font-weight="bold" text-decoration="none" x="1126.286865234375" y="347.5">api.dto</text></g></g><g transform="translate(-590,-134) scale(1,1)"><rect fill="#C0C0C0" stroke="none" x="1127" y="287" width="90.62451171875" height="44" opacity="0.2"/></g><g transform="translate(-590,-134) scale(1,1)"><rect fill="#ffffff" stroke="none" x="1120" y="280" width="90.62451171875" height="44"/></g><g transform="translate(-590,-134) scale(1,1)"><path fill="none" stroke="#000000" d="M 1120 280 L 1210.62451171875 280 L 1210.62451171875 324 L 1120 324 L 1120 280 Z Z" stroke-miterlimit="10"/></g><g transform="translate(-590,-134) scale(1,1)"><path fill="none" stroke="#000000" d="M 1120 305 L 1210.62451171875 305" stroke-miterlimit="10"/></g><g transform="translate(-590,-134) scale(1,1)"><path fill="none" stroke="#000000" d="M 1120 315 L 1210.62451171875 315" stroke-miterlimit="10"/></g><g transform="translate(-590,-134) scale(1,1)"><g><path fill="none" stroke="none"/><text fill="#000000" stroke="none" font-family="Arial" font-size="13px" font-style="normal" font-weight="bold" text-decoration="none" x="1127.73095703125" y="299.5">response.dto</text></g></g><g transform="translate(-590,-134) scale(1,1)"><rect fill="#C0C0C0" stroke="none" x="647" y="295" width="59.644726562499955" height="15" opacity="0.2"/></g><g transform="translate(-590,-134) scale(1,1)"><rect fill="#C0C0C0" stroke="none" x="647" y="309" width="149.11181640625" height="130" opacity="0.2"/></g><g transform="translate(-590,-134) scale(1,1)"><rect fill="#ffffff" stroke="none" x="640" y="303" width="149.11181640625" height="129"/></g><g transform="translate(-590,-134) scale(1,1)"><path fill="none" stroke="#000000" d="M 640 303 L 789.11181640625 303 L 789.11181640625 432 L 640 432 L 640 303 Z Z" stroke-miterlimit="10"/></g><g transform="translate(-590,-134) scale(1,1)"><rect fill="#ffffff" stroke="none" x="640" y="288" width="59.644726562499955" height="15"/></g><g transform="translate(-590,-134) scale(1,1)"><path fill="none" stroke="#000000" d="M 640 288 L 699.6447265625 288 L 699.6447265625 303 L 640 303 L 640 288 Z Z" stroke-miterlimit="10"/></g><g transform="translate(-590,-134) scale(1,1)"><rect fill="#ffffff" stroke="none" x="640" y="302" width="149.11181640625" height="130"/></g><g transform="translate(-590,-134) scale(1,1)"><path fill="none" stroke="#000000" d="M 640 302 L 789.11181640625 302 L 789.11181640625 432 L 640 432 L 640 302 Z Z" stroke-miterlimit="10"/></g><g transform="translate(-590,-134) scale(1,1)"><g><path fill="none" stroke="none"/><text fill="#000000" stroke="none" font-family="Arial" font-size="13px" font-style="normal" font-weight="bold" text-decoration="none" x="669.385986328125" y="322.5">AppComponent</text></g></g><g transform="translate(-590,-134) scale(1,1)"><rect fill="#C0C0C0" stroke="none" x="799" y="295" width="70.39999999999998" height="15" opacity="0.2"/></g><g transform="translate(-590,-134) scale(1,1)"><rect fill="#C0C0C0" stroke="none" x="799" y="309" width="176" height="130" opacity="0.2"/></g><g transform="translate(-590,-134) scale(1,1)"><rect fill="#ffffff" stroke="none" x="792" y="303" width="176" height="129"/></g><g transform="translate(-590,-134) scale(1,1)"><path fill="none" stroke="#000000" d="M 792 303 L 968 303 L 968 432 L 792 432 L 792 303 Z Z" stroke-miterlimit="10"/></g><g transform="translate(-590,-134) scale(1,1)"><rect fill="#ffffff" stroke="none" x="792" y="288" width="70.39999999999998" height="15"/></g><g transform="translate(-590,-134) scale(1,1)"><path fill="none" stroke="#000000" d="M 792 288 L 862.4 288 L 862.4 303 L 792 303 L 792 288 Z Z" stroke-miterlimit="10"/></g><g transform="translate(-590,-134) scale(1,1)"><rect fill="#ffffff" stroke="none" x="792" y="302" width="176" height="130"/></g><g transform="translate(-590,-134) scale(1,1)"><path fill="none" stroke="#000000" d="M 792 302 L 968 302 L 968 432 L 792 432 L 792 302 Z Z" stroke-miterlimit="10"/></g><g transform="translate(-590,-134) scale(1,1)"><g><path fill="none" stroke="none"/><text fill="#000000" stroke="none" font-family="Arial" font-size="13px" font-style="normal" font-weight="bold" text-decoration="none" x="814.596923828125" y="322.5">DashboardComponent</text></g></g><g transform="translate(-590,-134) scale(1,1)"><rect fill="#C0C0C0" stroke="none" x="983" y="279" width="48" height="15" opacity="0.2"/></g><g transform="translate(-590,-134) scale(1,1)"><rect fill="#C0C0C0" stroke="none" x="983" y="293" width="120" height="146" opacity="0.2"/></g><g transform="translate(-590,-134) scale(1,1)"><rect fill="#ffffff" stroke="none" x="976" y="287" width="120" height="145"/></g><g transform="translate(-590,-134) scale(1,1)"><path fill="none" stroke="#000000" d="M 976 287 L 1096 287 L 1096 432 L 976 432 L 976 287 Z Z" stroke-miterlimit="10"/></g><g transform="translate(-590,-134) scale(1,1)"><rect fill="#ffffff" stroke="none" x="976" y="272" width="48" height="15"/></g><g transform="translate(-590,-134) scale(1,1)"><path fill="none" stroke="#000000" d="M 976 272 L 1024 272 L 1024 287 L 976 287 L 976 272 Z Z" stroke-miterlimit="10"/></g><g transform="translate(-590,-134) scale(1,1)"><rect fill="#ffffff" stroke="none" x="976" y="286" width="120" height="146"/></g><g transform="translate(-590,-134) scale(1,1)"><path fill="none" stroke="#000000" d="M 976 286 L 1096 286 L 1096 432 L 976 432 L 976 286 Z Z" stroke-miterlimit="10"/></g><g transform="translate(-590,-134) scale(1,1)"><g><path fill="none" stroke="none"/><text fill="#000000" stroke="none" font-family="Arial" font-size="13px" font-style="normal" font-weight="bold" text-decoration="none" x="986.491455078125" y="306.5">LoginComponent</text></g></g><g transform="translate(-590,-134) scale(1,1)"><rect fill="#C0C0C0" stroke="none" x="671" y="375" width="106.48095703125" height="44" opacity="0.2"/></g><g transform="translate(-590,-134) scale(1,1)"><rect fill="#ffffff" stroke="none" x="664" y="368" width="106.48095703125" height="44"/></g><g transform="translate(-590,-134) scale(1,1)"><path fill="none" stroke="#000000" d="M 664 368 L 770.48095703125 368 L 770.48095703125 412 L 664 412 L 664 368 Z Z" stroke-miterlimit="10"/></g><g transform="translate(-590,-134) scale(1,1)"><path fill="none" stroke="#000000" d="M 664 393 L 770.48095703125 393" stroke-miterlimit="10"/></g><g transform="translate(-590,-134) scale(1,1)"><path fill="none" stroke="#000000" d="M 664 403 L 770.48095703125 403" stroke-miterlimit="10"/></g><g transform="translate(-590,-134) scale(1,1)"><g><path fill="none" stroke="none"/><text fill="#000000" stroke="none" font-family="Arial" font-size="13px" font-style="normal" font-weight="bold" text-decoration="none" x="672.070556640625" y="387.5">AppComponent</text></g></g><g transform="translate(-590,-134) scale(1,1)"><rect fill="#C0C0C0" stroke="none" x="815" y="335" width="149.11181640625" height="44" opacity="0.2"/></g><g transform="translate(-590,-134) scale(1,1)"><rect fill="#ffffff" stroke="none" x="808" y="328" width="149.11181640625" height="44"/></g><g transform="translate(-590,-134) scale(1,1)"><path fill="none" stroke="#000000" d="M 808 328 L 957.11181640625 328 L 957.11181640625 372 L 808 372 L 808 328 Z Z" stroke-miterlimit="10"/></g><g transform="translate(-590,-134) scale(1,1)"><path fill="none" stroke="#000000" d="M 808 353 L 957.11181640625 353" stroke-miterlimit="10"/></g><g transform="translate(-590,-134) scale(1,1)"><path fill="none" stroke="#000000" d="M 808 363 L 957.11181640625 363" stroke-miterlimit="10"/></g><g transform="translate(-590,-134) scale(1,1)"><g><path fill="none" stroke="none"/><text fill="#000000" stroke="none" font-family="Arial" font-size="13px" font-style="normal" font-weight="bold" text-decoration="none" x="817.15283203125" y="347.5">DashboardComponent</text></g></g><g transform="translate(-590,-134) scale(1,1)"><rect fill="#C0C0C0" stroke="none" x="631" y="183" width="50.919921875" height="44" opacity="0.2"/></g><g transform="translate(-590,-134) scale(1,1)"><rect fill="#ffffff" stroke="none" x="624" y="176" width="50.919921875" height="44"/></g><g transform="translate(-590,-134) scale(1,1)"><path fill="none" stroke="#000000" d="M 624 176 L 674.919921875 176 L 674.919921875 220 L 624 220 L 624 176 Z Z" stroke-miterlimit="10"/></g><g transform="translate(-590,-134) scale(1,1)"><path fill="none" stroke="#000000" d="M 624 201 L 674.919921875 201" stroke-miterlimit="10"/></g><g transform="translate(-590,-134) scale(1,1)"><path fill="none" stroke="#000000" d="M 624 211 L 674.919921875 211" stroke-miterlimit="10"/></g><g transform="translate(-590,-134) scale(1,1)"><g><path fill="none" stroke="none"/><text fill="#000000" stroke="none" font-family="Arial" font-size="13px" font-style="normal" font-weight="bold" text-decoration="none" x="633.9208984375" y="195.5">index</text></g></g><g transform="translate(-590,-134) scale(1,1)"><rect fill="#C0C0C0" stroke="none" x="983" y="375" width="116.58642578125" height="44" opacity="0.2"/></g><g transform="translate(-590,-134) scale(1,1)"><rect fill="#ffffff" stroke="none" x="976" y="368" width="116.58642578125" height="44"/></g><g transform="translate(-590,-134) scale(1,1)"><path fill="none" stroke="#000000" d="M 976 368 L 1092.58642578125 368 L 1092.58642578125 412 L 976 412 L 976 368 Z Z" stroke-miterlimit="10"/></g><g transform="translate(-590,-134) scale(1,1)"><path fill="none" stroke="#000000" d="M 976 393 L 1092.58642578125 393" stroke-miterlimit="10"/></g><g transform="translate(-590,-134) scale(1,1)"><path fill="none" stroke="#000000" d="M 976 403 L 1092.58642578125 403" stroke-miterlimit="10"/></g><g transform="translate(-590,-134) scale(1,1)"><g><path fill="none" stroke="none"/><text fill="#000000" stroke="none" font-family="Arial" font-size="13px" font-style="normal" font-weight="bold" text-decoration="none" x="984.78466796875" y="387.5">LoginComponent</text></g></g><g transform="translate(-590,-134) scale(1,1)"><path fill="none" stroke="#000000" d="M 657 221 L 709 367" stroke-miterlimit="10"/></g><g transform="translate(-590,-134) scale(1,1)"><path fill="none" stroke="#000000" d="M 701.6247248566754 358.83879196685575 L 709 367 L 709.555738475949 356.01404739012816" stroke-miterlimit="10"/></g><g transform="translate(-590,-134) scale(1,1)"><rect fill="#C0C0C0" stroke="none" x="919" y="503" width="106.29052734375" height="44" opacity="0.2"/></g><g transform="translate(-590,-134) scale(1,1)"><rect fill="#ffffff" stroke="none" x="912" y="496" width="106.29052734375" height="44"/></g><g transform="translate(-590,-134) scale(1,1)"><path fill="none" stroke="#000000" d="M 912 496 L 1018.29052734375 496 L 1018.29052734375 540 L 912 540 L 912 496 Z Z" stroke-miterlimit="10"/></g><g transform="translate(-590,-134) scale(1,1)"><path fill="none" stroke="#000000" d="M 912 521 L 1018.29052734375 521" stroke-miterlimit="10"/></g><g transform="translate(-590,-134) scale(1,1)"><path fill="none" stroke="#000000" d="M 912 531 L 1018.29052734375 531" stroke-miterlimit="10"/></g><g transform="translate(-590,-134) scale(1,1)"><g><path fill="none" stroke="none"/><text fill="#000000" stroke="none" font-family="Arial" font-size="13px" font-style="normal" font-weight="bold" text-decoration="none" x="919.37548828125" y="515.5">DashboardView</text></g></g><g transform="translate(-590,-134) scale(1,1)"><rect fill="#C0C0C0" stroke="none" x="1071" y="503" width="73.76513671875" height="44" opacity="0.2"/></g><g transform="translate(-590,-134) scale(1,1)"><rect fill="#ffffff" stroke="none" x="1064" y="496" width="73.76513671875" height="44"/></g><g transform="translate(-590,-134) scale(1,1)"><path fill="none" stroke="#000000" d="M 1064 496 L 1137.76513671875 496 L 1137.76513671875 540 L 1064 540 L 1064 496 Z Z" stroke-miterlimit="10"/></g><g transform="translate(-590,-134) scale(1,1)"><path fill="none" stroke="#000000" d="M 1064 521 L 1137.76513671875 521" stroke-miterlimit="10"/></g><g transform="translate(-590,-134) scale(1,1)"><path fill="none" stroke="#000000" d="M 1064 531 L 1137.76513671875 531" stroke-miterlimit="10"/></g><g transform="translate(-590,-134) scale(1,1)"><g><path fill="none" stroke="none"/><text fill="#000000" stroke="none" font-family="Arial" font-size="13px" font-style="normal" font-weight="bold" text-decoration="none" x="1071.00732421875" y="515.5">LoginView</text></g></g><g transform="translate(-590,-134) scale(1,1)"><rect fill="#C0C0C0" stroke="none" x="919" y="559" width="68.0078125" height="44" opacity="0.2"/></g><g transform="translate(-590,-134) scale(1,1)"><rect fill="#ffffff" stroke="none" x="912" y="552" width="68.0078125" height="44"/></g><g transform="translate(-590,-134) scale(1,1)"><path fill="none" stroke="#000000" d="M 912 552 L 980.0078125 552 L 980.0078125 596 L 912 596 L 912 552 Z Z" stroke-miterlimit="10"/></g><g transform="translate(-590,-134) scale(1,1)"><path fill="none" stroke="#000000" d="M 912 577 L 980.0078125 577" stroke-miterlimit="10"/></g><g transform="translate(-590,-134) scale(1,1)"><path fill="none" stroke="#000000" d="M 912 587 L 980.0078125 587" stroke-miterlimit="10"/></g><g transform="translate(-590,-134) scale(1,1)"><g><path fill="none" stroke="none"/><text fill="#000000" stroke="none" font-family="Arial" font-size="13px" font-style="normal" font-weight="bold" text-decoration="none" x="917.944091796875" y="571.5">CardView</text></g></g><g transform="translate(-590,-134) scale(1,1)"><rect fill="#C0C0C0" stroke="none" x="999" y="559" width="76.67236328125" height="44" opacity="0.2"/></g><g transform="translate(-590,-134) scale(1,1)"><rect fill="#ffffff" stroke="none" x="992" y="552" width="76.67236328125" height="44"/></g><g transform="translate(-590,-134) scale(1,1)"><path fill="none" stroke="#000000" d="M 992 552 L 1068.67236328125 552 L 1068.67236328125 596 L 992 596 L 992 552 Z Z" stroke-miterlimit="10"/></g><g transform="translate(-590,-134) scale(1,1)"><path fill="none" stroke="#000000" d="M 992 577 L 1068.67236328125 577" stroke-miterlimit="10"/></g><g transform="translate(-590,-134) scale(1,1)"><path fill="none" stroke="#000000" d="M 992 587 L 1068.67236328125 587" stroke-miterlimit="10"/></g><g transform="translate(-590,-134) scale(1,1)"><g><path fill="none" stroke="none"/><text fill="#000000" stroke="none" font-family="Arial" font-size="13px" font-style="normal" font-weight="bold" text-decoration="none" x="998.299560546875" y="571.5">GraphView</text></g></g><g transform="translate(-590,-134) scale(1,1)"><rect fill="#C0C0C0" stroke="none" x="919" y="615" width="71.37841796875" height="44" opacity="0.2"/></g><g transform="translate(-590,-134) scale(1,1)"><rect fill="#ffffff" stroke="none" x="912" y="608" width="71.37841796875" height="44"/></g><g transform="translate(-590,-134) scale(1,1)"><path fill="none" stroke="#000000" d="M 912 608 L 983.37841796875 608 L 983.37841796875 652 L 912 652 L 912 608 Z Z" stroke-miterlimit="10"/></g><g transform="translate(-590,-134) scale(1,1)"><path fill="none" stroke="#000000" d="M 912 633 L 983.37841796875 633" stroke-miterlimit="10"/></g><g transform="translate(-590,-134) scale(1,1)"><path fill="none" stroke="#000000" d="M 912 643 L 983.37841796875 643" stroke-miterlimit="10"/></g><g transform="translate(-590,-134) scale(1,1)"><g><path fill="none" stroke="none"/><text fill="#000000" stroke="none" font-family="Arial" font-size="13px" font-style="normal" font-weight="bold" text-decoration="none" x="918.178955078125" y="627.5">TableView</text></g></g><g transform="translate(-590,-134) scale(1,1)"><rect fill="#C0C0C0" stroke="none" x="999" y="615" width="67.296875" height="44" opacity="0.2"/></g><g transform="translate(-590,-134) scale(1,1)"><rect fill="#ffffff" stroke="none" x="992" y="608" width="67.296875" height="44"/></g><g transform="translate(-590,-134) scale(1,1)"><path fill="none" stroke="#000000" d="M 992 608 L 1059.296875 608 L 1059.296875 652 L 992 652 L 992 608 Z Z" stroke-miterlimit="10"/></g><g transform="translate(-590,-134) scale(1,1)"><path fill="none" stroke="#000000" d="M 992 633 L 1059.296875 633" stroke-miterlimit="10"/></g><g transform="translate(-590,-134) scale(1,1)"><path fill="none" stroke="#000000" d="M 992 643 L 1059.296875 643" stroke-miterlimit="10"/></g><g transform="translate(-590,-134) scale(1,1)"><g><path fill="none" stroke="none"/><text fill="#000000" stroke="none" font-family="Arial" font-size="13px" font-style="normal" font-weight="bold" text-decoration="none" x="997.95361328125" y="627.5">UserView</text></g></g><g transform="translate(-590,-134) scale(1,1)"><rect fill="#C0C0C0" stroke="none" x="631" y="479" width="76.79999999999995" height="15" opacity="0.2"/></g><g transform="translate(-590,-134) scale(1,1)"><rect fill="#C0C0C0" stroke="none" x="631" y="493" width="192" height="98" opacity="0.2"/></g><g transform="translate(-590,-134) scale(1,1)"><rect fill="#ffffff" stroke="none" x="624" y="487" width="192" height="97"/></g><g transform="translate(-590,-134) scale(1,1)"><path fill="none" stroke="#000000" d="M 624 487 L 816 487 L 816 584 L 624 584 L 624 487 Z Z" stroke-miterlimit="10"/></g><g transform="translate(-590,-134) scale(1,1)"><rect fill="#ffffff" stroke="none" x="624" y="472" width="76.79999999999995" height="15"/></g><g transform="translate(-590,-134) scale(1,1)"><path fill="none" stroke="#000000" d="M 624 472 L 700.8 472 L 700.8 487 L 624 487 L 624 472 Z Z" stroke-miterlimit="10"/></g><g transform="translate(-590,-134) scale(1,1)"><rect fill="#ffffff" stroke="none" x="624" y="486" width="192" height="98"/></g><g transform="translate(-590,-134) scale(1,1)"><path fill="none" stroke="#000000" d="M 624 486 L 816 486 L 816 584 L 624 584 L 624 486 Z Z" stroke-miterlimit="10"/></g><g transform="translate(-590,-134) scale(1,1)"><g><path fill="none" stroke="none"/><text fill="#000000" stroke="none" font-family="Arial" font-size="13px" font-style="normal" font-weight="bold" text-decoration="none" x="683.872314453125" y="506.5">Repositories</text></g></g><g transform="translate(-590,-134) scale(1,1)"><rect fill="#C0C0C0" stroke="none" x="655" y="527" width="138.28271484375" height="44" opacity="0.2"/></g><g transform="translate(-590,-134) scale(1,1)"><rect fill="#ffffff" stroke="none" x="648" y="520" width="138.28271484375" height="44"/></g><g transform="translate(-590,-134) scale(1,1)"><path fill="none" stroke="#000000" d="M 648 520 L 786.28271484375 520 L 786.28271484375 564 L 648 564 L 648 520 Z Z" stroke-miterlimit="10"/></g><g transform="translate(-590,-134) scale(1,1)"><path fill="none" stroke="#000000" d="M 648 545 L 786.28271484375 545" stroke-miterlimit="10"/></g><g transform="translate(-590,-134) scale(1,1)"><path fill="none" stroke="#000000" d="M 648 555 L 786.28271484375 555" stroke-miterlimit="10"/></g><g transform="translate(-590,-134) scale(1,1)"><g><path fill="none" stroke="none"/><text fill="#000000" stroke="none" font-family="Arial" font-size="13px" font-style="normal" font-weight="bold" text-decoration="none" x="657.88916015625" y="539.5">ReportingRepository</text></g></g><g transform="translate(-590,-134) scale(1,1)"><path fill="none" stroke="#000000" d="M 807 368 L 771 377" stroke-miterlimit="10"/></g><g transform="translate(-590,-134) scale(1,1)"><path fill="none" stroke="#000000" d="M 779.8382847744828 370.4513572211376 L 771 377 L 781.8802008145965 378.61902138159263" stroke-miterlimit="10"/></g><g transform="translate(-590,-134) scale(1,1)"><path fill="none" stroke="#000000" d="M 975 390 L 771 390" stroke-miterlimit="10"/></g><g transform="translate(-590,-134) scale(1,1)"><path fill="none" stroke="#000000" d="M 781.1626748576241 385.790482243984 L 771 390 L 781.1626748576241 394.209517756016" stroke-miterlimit="10"/></g><g transform="translate(-590,-134) scale(1,1)"><path fill="none" stroke="#000000" d="M 1119 310 L 958 337" stroke-miterlimit="10"/></g><g transform="translate(-590,-134) scale(1,1)"><path fill="none" stroke="#000000" d="M 967.326491519725 331.1676286184351 L 958 337 L 968.7189347525792 339.4707160439735" stroke-miterlimit="10"/></g><g transform="translate(-590,-134) scale(1,1)"><path fill="none" stroke="#000000" d="M 1119 350 L 958 350" stroke-miterlimit="10"/></g><g transform="translate(-590,-134) scale(1,1)"><path fill="none" stroke="#000000" d="M 968.1626748576241 345.790482243984 L 958 350 L 968.1626748576241 354.209517756016" stroke-miterlimit="10"/></g><g transform="translate(-590,-134) scale(1,1)"><path fill="none" stroke="#000000" d="M 1119 359 L 1094 369" stroke-miterlimit="10"/></g><g transform="translate(-590,-134) scale(1,1)"><path fill="none" stroke="#000000" d="M 1101.8724310758182 361.31723819473166 L 1094 369 L 1104.999182368881 369.13411642738856" stroke-miterlimit="10"/></g><g transform="translate(-590,-134) scale(1,1)"><path fill="none" stroke="#000000" d="M 954 495 L 893 373" stroke-miterlimit="10"/></g><g transform="translate(-590,-134) scale(1,1)"><path fill="none" stroke="#000000" d="M 901.3099935049528 380.2072191549614 L 893 373 L 893.7797792209975 383.97232629693906" stroke-miterlimit="10"/></g><g transform="translate(-590,-134) scale(1,1)"><path fill="none" stroke="#000000" d="M 1088 495 L 1046 413" stroke-miterlimit="10"/></g><g transform="translate(-590,-134) scale(1,1)"><path fill="none" stroke="#000000" d="M 1054.3795715882682 420.1262037577582 L 1046 413 L 1046.8862648922748 423.9642388947305" stroke-miterlimit="10"/></g><g transform="translate(-590,-134) scale(1,1)"><path fill="none" stroke="#000000" d="M 954 551 L 957 541" stroke-miterlimit="10"/></g><g transform="translate(-590,-134) scale(1,1)"><path fill="none" stroke="#000000" d="M 958.1117636227807 551.9436731332337 L 957 541 L 950.0477901131462 549.5244810803433" stroke-miterlimit="10"/></g><g transform="translate(-590,-134) scale(1,1)"><path fill="none" stroke="#000000" d="M 1003 551 L 992 541" stroke-miterlimit="10"/></g><g transform="translate(-590,-134) scale(1,1)"><path fill="none" stroke="#000000" d="M 1002.3513984503659 544.7213640136061 L 992 541 L 996.6881423097332 550.9509457683021" stroke-miterlimit="10"/></g><g transform="translate(-590,-134) scale(1,1)"><path fill="none" stroke="#000000" d="M 951 607 L 961 541" stroke-miterlimit="10"/></g><g transform="translate(-590,-134) scale(1,1)"><path fill="none" stroke="#000000" d="M 963.6395921076328 551.678602600777 L 961 541 L 955.3155611662678 550.4173857914793" stroke-miterlimit="10"/></g><g transform="translate(-590,-134) scale(1,1)"><path fill="none" stroke="#000000" d="M 1013 607 L 977 541" stroke-miterlimit="10"/></g><g transform="translate(-590,-134) scale(1,1)"><path fill="none" stroke="#000000" d="M 985.5619355110981 547.9060307198706 L 977 541 L 978.1709015068762 551.9375038130826" stroke-miterlimit="10"/></g><g transform="translate(-590,-134) scale(1,1)"><path fill="none" stroke="#000000" d="M 737 519 L 862 373" stroke-miterlimit="10"/></g><g transform="translate(-590,-134) scale(1,1)"><path fill="none" stroke="#000000" d="M 858.58822401284 383.4575228717626 L 862 373 L 852.192924726553 377.98209540062646" stroke-miterlimit="10"/></g></g></svg>