<svg version="1.1" xmlns="http://www.w3.org/2000/svg" xmlns:xlink="http://www.w3.org/1999/xlink" width="652" height="556"><defs/><g><text fill="#eeeeee" stroke="none" font-family="Arial" font-size="24px" font-style="normal" font-weight="normal" text-decoration="none" x="0" y="0">UNREGISTERED</text><text fill="#eeeeee" stroke="none" font-family="Arial" font-size="24px" font-style="normal" font-weight="normal" text-decoration="none" x="0" y="30">UNREGISTERED</text><text fill="#eeeeee" stroke="none" font-family="Arial" font-size="24px" font-style="normal" font-weight="normal" text-decoration="none" x="0" y="60">UNREGISTERED</text><text fill="#eeeeee" stroke="none" font-family="Arial" font-size="24px" font-style="normal" font-weight="normal" text-decoration="none" x="0" y="90">UNREGISTERED</text><text fill="#eeeeee" stroke="none" font-family="Arial" font-size="24px" font-style="normal" font-weight="normal" text-decoration="none" x="0" y="120">UNREGISTERED</text><text fill="#eeeeee" stroke="none" font-family="Arial" font-size="24px" font-style="normal" font-weight="normal" text-decoration="none" x="0" y="150">UNREGISTERED</text><text fill="#eeeeee" stroke="none" font-family="Arial" font-size="24px" font-style="normal" font-weight="normal" text-decoration="none" x="0" y="180">UNREGISTERED</text><text fill="#eeeeee" stroke="none" font-family="Arial" font-size="24px" font-style="normal" font-weight="normal" text-decoration="none" x="0" y="210">UNREGISTERED</text><text fill="#eeeeee" stroke="none" font-family="Arial" font-size="24px" font-style="normal" font-weight="normal" text-decoration="none" x="0" y="240">UNREGISTERED</text><text fill="#eeeeee" stroke="none" font-family="Arial" font-size="24px" font-style="normal" font-weight="normal" text-decoration="none" x="0" y="270">UNREGISTERED</text><text fill="#eeeeee" stroke="none" font-family="Arial" font-size="24px" font-style="normal" font-weight="normal" text-decoration="none" x="0" y="300">UNREGISTERED</text><text fill="#eeeeee" stroke="none" font-family="Arial" font-size="24px" font-style="normal" font-weight="normal" text-decoration="none" x="0" y="330">UNREGISTERED</text><text fill="#eeeeee" stroke="none" font-family="Arial" font-size="24px" font-style="normal" font-weight="normal" text-decoration="none" x="0" y="360">UNREGISTERED</text><text fill="#eeeeee" stroke="none" font-family="Arial" font-size="24px" font-style="normal" font-weight="normal" text-decoration="none" x="0" y="390">UNREGISTERED</text><text fill="#eeeeee" stroke="none" font-family="Arial" font-size="24px" font-style="normal" font-weight="normal" text-decoration="none" x="0" y="420">UNREGISTERED</text><text fill="#eeeeee" stroke="none" font-family="Arial" font-size="24px" font-style="normal" font-weight="normal" text-decoration="none" x="0" y="450">UNREGISTERED</text><text fill="#eeeeee" stroke="none" font-family="Arial" font-size="24px" font-style="normal" font-weight="normal" text-decoration="none" x="0" y="480">UNREGISTERED</text><text fill="#eeeeee" stroke="none" font-family="Arial" font-size="24px" font-style="normal" font-weight="normal" text-decoration="none" x="0" y="510">UNREGISTERED</text><text fill="#eeeeee" stroke="none" font-family="Arial" font-size="24px" font-style="normal" font-weight="normal" text-decoration="none" x="0" y="540">UNREGISTERED</text><text fill="#eeeeee" stroke="none" font-family="Arial" font-size="24px" font-style="normal" font-weight="normal" text-decoration="none" x="200" y="0">UNREGISTERED</text><text fill="#eeeeee" stroke="none" font-family="Arial" font-size="24px" font-style="normal" font-weight="normal" text-decoration="none" x="200" y="30">UNREGISTERED</text><text fill="#eeeeee" stroke="none" font-family="Arial" font-size="24px" font-style="normal" font-weight="normal" text-decoration="none" x="200" y="60">UNREGISTERED</text><text fill="#eeeeee" stroke="none" font-family="Arial" font-size="24px" font-style="normal" font-weight="normal" text-decoration="none" x="200" y="90">UNREGISTERED</text><text fill="#eeeeee" stroke="none" font-family="Arial" font-size="24px" font-style="normal" font-weight="normal" text-decoration="none" x="200" y="120">UNREGISTERED</text><text fill="#eeeeee" stroke="none" font-family="Arial" font-size="24px" font-style="normal" font-weight="normal" text-decoration="none" x="200" y="150">UNREGISTERED</text><text fill="#eeeeee" stroke="none" font-family="Arial" font-size="24px" font-style="normal" font-weight="normal" text-decoration="none" x="200" y="180">UNREGISTERED</text><text fill="#eeeeee" stroke="none" font-family="Arial" font-size="24px" font-style="normal" font-weight="normal" text-decoration="none" x="200" y="210">UNREGISTERED</text><text fill="#eeeeee" stroke="none" font-family="Arial" font-size="24px" font-style="normal" font-weight="normal" text-decoration="none" x="200" y="240">UNREGISTERED</text><text fill="#eeeeee" stroke="none" font-family="Arial" font-size="24px" font-style="normal" font-weight="normal" text-decoration="none" x="200" y="270">UNREGISTERED</text><text fill="#eeeeee" stroke="none" font-family="Arial" font-size="24px" font-style="normal" font-weight="normal" text-decoration="none" x="200" y="300">UNREGISTERED</text><text fill="#eeeeee" stroke="none" font-family="Arial" font-size="24px" font-style="normal" font-weight="normal" text-decoration="none" x="200" y="330">UNREGISTERED</text><text fill="#eeeeee" stroke="none" font-family="Arial" font-size="24px" font-style="normal" font-weight="normal" text-decoration="none" x="200" y="360">UNREGISTERED</text><text fill="#eeeeee" stroke="none" font-family="Arial" font-size="24px" font-style="normal" font-weight="normal" text-decoration="none" x="200" y="390">UNREGISTERED</text><text fill="#eeeeee" stroke="none" font-family="Arial" font-size="24px" font-style="normal" font-weight="normal" text-decoration="none" x="200" y="420">UNREGISTERED</text><text fill="#eeeeee" stroke="none" font-family="Arial" font-size="24px" font-style="normal" font-weight="normal" text-decoration="none" x="200" y="450">UNREGISTERED</text><text fill="#eeeeee" stroke="none" font-family="Arial" font-size="24px" font-style="normal" font-weight="normal" text-decoration="none" x="200" y="480">UNREGISTERED</text><text fill="#eeeeee" stroke="none" font-family="Arial" font-size="24px" font-style="normal" font-weight="normal" text-decoration="none" x="200" y="510">UNREGISTERED</text><text fill="#eeeeee" stroke="none" font-family="Arial" font-size="24px" font-style="normal" font-weight="normal" text-decoration="none" x="200" y="540">UNREGISTERED</text><text fill="#eeeeee" stroke="none" font-family="Arial" font-size="24px" font-style="normal" font-weight="normal" text-decoration="none" x="400" y="0">UNREGISTERED</text><text fill="#eeeeee" stroke="none" font-family="Arial" font-size="24px" font-style="normal" font-weight="normal" text-decoration="none" x="400" y="30">UNREGISTERED</text><text fill="#eeeeee" stroke="none" font-family="Arial" font-size="24px" font-style="normal" font-weight="normal" text-decoration="none" x="400" y="60">UNREGISTERED</text><text fill="#eeeeee" stroke="none" font-family="Arial" font-size="24px" font-style="normal" font-weight="normal" text-decoration="none" x="400" y="90">UNREGISTERED</text><text fill="#eeeeee" stroke="none" font-family="Arial" font-size="24px" font-style="normal" font-weight="normal" text-decoration="none" x="400" y="120">UNREGISTERED</text><text fill="#eeeeee" stroke="none" font-family="Arial" font-size="24px" font-style="normal" font-weight="normal" text-decoration="none" x="400" y="150">UNREGISTERED</text><text fill="#eeeeee" stroke="none" font-family="Arial" font-size="24px" font-style="normal" font-weight="normal" text-decoration="none" x="400" y="180">UNREGISTERED</text><text fill="#eeeeee" stroke="none" font-family="Arial" font-size="24px" font-style="normal" font-weight="normal" text-decoration="none" x="400" y="210">UNREGISTERED</text><text fill="#eeeeee" stroke="none" font-family="Arial" font-size="24px" font-style="normal" font-weight="normal" text-decoration="none" x="400" y="240">UNREGISTERED</text><text fill="#eeeeee" stroke="none" font-family="Arial" font-size="24px" font-style="normal" font-weight="normal" text-decoration="none" x="400" y="270">UNREGISTERED</text><text fill="#eeeeee" stroke="none" font-family="Arial" font-size="24px" font-style="normal" font-weight="normal" text-decoration="none" x="400" y="300">UNREGISTERED</text><text fill="#eeeeee" stroke="none" font-family="Arial" font-size="24px" font-style="normal" font-weight="normal" text-decoration="none" x="400" y="330">UNREGISTERED</text><text fill="#eeeeee" stroke="none" font-family="Arial" font-size="24px" font-style="normal" font-weight="normal" text-decoration="none" x="400" y="360">UNREGISTERED</text><text fill="#eeeeee" stroke="none" font-family="Arial" font-size="24px" font-style="normal" font-weight="normal" text-decoration="none" x="400" y="390">UNREGISTERED</text><text fill="#eeeeee" stroke="none" font-family="Arial" font-size="24px" font-style="normal" font-weight="normal" text-decoration="none" x="400" y="420">UNREGISTERED</text><text fill="#eeeeee" stroke="none" font-family="Arial" font-size="24px" font-style="normal" font-weight="normal" text-decoration="none" x="400" y="450">UNREGISTERED</text><text fill="#eeeeee" stroke="none" font-family="Arial" font-size="24px" font-style="normal" font-weight="normal" text-decoration="none" x="400" y="480">UNREGISTERED</text><text fill="#eeeeee" stroke="none" font-family="Arial" font-size="24px" font-style="normal" font-weight="normal" text-decoration="none" x="400" y="510">UNREGISTERED</text><text fill="#eeeeee" stroke="none" font-family="Arial" font-size="24px" font-style="normal" font-weight="normal" text-decoration="none" x="400" y="540">UNREGISTERED</text><text fill="#eeeeee" stroke="none" font-family="Arial" font-size="24px" font-style="normal" font-weight="normal" text-decoration="none" x="600" y="0">UNREGISTERED</text><text fill="#eeeeee" stroke="none" font-family="Arial" font-size="24px" font-style="normal" font-weight="normal" text-decoration="none" x="600" y="30">UNREGISTERED</text><text fill="#eeeeee" stroke="none" font-family="Arial" font-size="24px" font-style="normal" font-weight="normal" text-decoration="none" x="600" y="60">UNREGISTERED</text><text fill="#eeeeee" stroke="none" font-family="Arial" font-size="24px" font-style="normal" font-weight="normal" text-decoration="none" x="600" y="90">UNREGISTERED</text><text fill="#eeeeee" stroke="none" font-family="Arial" font-size="24px" font-style="normal" font-weight="normal" text-decoration="none" x="600" y="120">UNREGISTERED</text><text fill="#eeeeee" stroke="none" font-family="Arial" font-size="24px" font-style="normal" font-weight="normal" text-decoration="none" x="600" y="150">UNREGISTERED</text><text fill="#eeeeee" stroke="none" font-family="Arial" font-size="24px" font-style="normal" font-weight="normal" text-decoration="none" x="600" y="180">UNREGISTERED</text><text fill="#eeeeee" stroke="none" font-family="Arial" font-size="24px" font-style="normal" font-weight="normal" text-decoration="none" x="600" y="210">UNREGISTERED</text><text fill="#eeeeee" stroke="none" font-family="Arial" font-size="24px" font-style="normal" font-weight="normal" text-decoration="none" x="600" y="240">UNREGISTERED</text><text fill="#eeeeee" stroke="none" font-family="Arial" font-size="24px" font-style="normal" font-weight="normal" text-decoration="none" x="600" y="270">UNREGISTERED</text><text fill="#eeeeee" stroke="none" font-family="Arial" font-size="24px" font-style="normal" font-weight="normal" text-decoration="none" x="600" y="300">UNREGISTERED</text><text fill="#eeeeee" stroke="none" font-family="Arial" font-size="24px" font-style="normal" font-weight="normal" text-decoration="none" x="600" y="330">UNREGISTERED</text><text fill="#eeeeee" stroke="none" font-family="Arial" font-size="24px" font-style="normal" font-weight="normal" text-decoration="none" x="600" y="360">UNREGISTERED</text><text fill="#eeeeee" stroke="none" font-family="Arial" font-size="24px" font-style="normal" font-weight="normal" text-decoration="none" x="600" y="390">UNREGISTERED</text><text fill="#eeeeee" stroke="none" font-family="Arial" font-size="24px" font-style="normal" font-weight="normal" text-decoration="none" x="600" y="420">UNREGISTERED</text><text fill="#eeeeee" stroke="none" font-family="Arial" font-size="24px" font-style="normal" font-weight="normal" text-decoration="none" x="600" y="450">UNREGISTERED</text><text fill="#eeeeee" stroke="none" font-family="Arial" font-size="24px" font-style="normal" font-weight="normal" text-decoration="none" x="600" y="480">UNREGISTERED</text><text fill="#eeeeee" stroke="none" font-family="Arial" font-size="24px" font-style="normal" font-weight="normal" text-decoration="none" x="600" y="510">UNREGISTERED</text><text fill="#eeeeee" stroke="none" font-family="Arial" font-size="24px" font-style="normal" font-weight="normal" text-decoration="none" x="600" y="540">UNREGISTERED</text><g transform="translate(-590,-134) scale(1,1)"><rect fill="#C0C0C0" stroke="none" x="607" y="151" width="252.79999999999995" height="15" opacity="0.2"/></g><g transform="translate(-590,-134) scale(1,1)"><rect fill="#C0C0C0" stroke="none" x="607" y="165" width="632" height="522" opacity="0.2"/></g><g transform="translate(-590,-134) scale(1,1)"><rect fill="#ffffff" stroke="none" x="600" y="159" width="632" height="521"/></g><g transform="translate(-590,-134) scale(1,1)"><path fill="none" stroke="#000000" d="M 600 159 L 1232 159 L 1232 680 L 600 680 L 600 159 Z Z" stroke-miterlimit="10"/></g><g transform="translate(-590,-134) scale(1,1)"><rect fill="#ffffff" stroke="none" x="600" y="144" width="252.79999999999995" height="15"/></g><g transform="translate(-590,-134) scale(1,1)"><path fill="none" stroke="#000000" d="M 600 144 L 852.8 144 L 852.8 159 L 600 159 L 600 144 Z Z" stroke-miterlimit="10"/></g><g transform="translate(-590,-134) scale(1,1)"><rect fill="#ffffff" stroke="none" x="600" y="158" width="632" height="522"/></g><g transform="translate(-590,-134) scale(1,1)"><path fill="none" stroke="#000000" d="M 600 158 L 1232 158 L 1232 680 L 600 680 L 600 158 Z Z" stroke-miterlimit="10"/></g><g transform="translate(-590,-134) scale(1,1)"><g><path fill="none" stroke="none"/><text fill="#000000" stroke="none" font-family="Arial" font-size="13px" font-style="normal" font-weight="bold" text-decoration="none" x="884.201416015625" y="178.5">Application</text></g></g><g transform="translate(-590,-134) scale(1,1)"><rect fill="#C0C0C0" stroke="none" x="631" y="247" width="192" height="15" opacity="0.2"/></g><g transform="translate(-590,-134) scale(1,1)"><rect fill="#C0C0C0" stroke="none" x="631" y="261" width="480" height="186" opacity="0.2"/></g><g transform="translate(-590,-134) scale(1,1)"><rect fill="#ffffff" stroke="none" x="624" y="255" width="480" height="185"/></g><g transform="translate(-590,-134) scale(1,1)"><path fill="none" stroke="#000000" d="M 624 255 L 1104 255 L 1104 440 L 624 440 L 624 255 Z Z" stroke-miterlimit="10"/></g><g transform="translate(-590,-134) scale(1,1)"><rect fill="#ffffff" stroke="none" x="624" y="240" width="192" height="15"/></g><g transform="translate(-590,-134) scale(1,1)"><path fill="none" stroke="#000000" d="M 624 240 L 816 240 L 816 255 L 624 255 L 624 240 Z Z" stroke-miterlimit="10"/></g><g transform="translate(-590,-134) scale(1,1)"><rect fill="#ffffff" stroke="none" x="624" y="254" width="480" height="186"/></g><g transform="translate(-590,-134) scale(1,1)"><path fill="none" stroke="#000000" d="M 624 254 L 1104 254 L 1104 440 L 624 440 L 624 254 Z Z" stroke-miterlimit="10"/></g><g transform="translate(-590,-134) scale(1,1)"><g><path fill="none" stroke="none"/><text fill="#000000" stroke="none" font-family="Arial" font-size="13px" font-style="normal" font-weight="bold" text-decoration="none" x="827.1455078125" y="274.5">Components</text></g></g><g transform="translate(-590,-134) scale(1,1)"><rect fill="#C0C0C0" stroke="none" x="1119" y="247" width="41.59999999999991" height="15" opacity="0.2"/></g><g transform="translate(-590,-134) scale(1,1)"><rect fill="#C0C0C0" stroke="none" x="1119" y="261" width="104" height="186" opacity="0.2"/></g><g transform="translate(-590,-134) scale(1,1)"><rect fill="#ffffff" stroke="none" x="1112" y="255" width="104" height="185"/></g><g transform="translate(-590,-134) scale(1,1)"><path fill="none" stroke="#000000" d="M 1112 255 L 1216 255 L 1216 440 L 1112 440 L 1112 255 Z Z" stroke-miterlimit="10"/></g><g transform="translate(-590,-134) scale(1,1)"><rect fill="#ffffff" stroke="none" x="1112" y="240" width="41.59999999999991" height="15"/></g><g transform="translate(-590,-134) scale(1,1)"><path fill="none" stroke="#000000" d="M 1112 240 L 1153.6 240 L 1153.6 255 L 1112 255 L 1112 240 Z Z" stroke-miterlimit="10"/></g><g transform="translate(-590,-134) scale(1,1)"><rect fill="#ffffff" stroke="none" x="1112" y="254" width="104" height="186"/></g><g transform="translate(-590,-134) scale(1,1)"><path fill="none" stroke="#000000" d="M 1112 254 L 1216 254 L 1216 440 L 1112 440 L 1112 254 Z Z" stroke-miterlimit="10"/></g><g transform="translate(-590,-134) scale(1,1)"><g><path fill="none" stroke="none"/><text fill="#000000" stroke="none" font-family="Arial" font-size="13px" font-style="normal" font-weight="bold" text-decoration="none" x="1147.14697265625" y="274.5">DTOs</text></g></g><g transform="translate(-590,-134) scale(1,1)"><rect fill="#C0C0C0" stroke="none" x="903" y="455" width="99.20000000000005" height="15" opacity="0.2"/></g><g transform="translate(-590,-134) scale(1,1)"><rect fill="#C0C0C0" stroke="none" x="903" y="469" width="248" height="210" opacity="0.2"/></g><g transform="translate(-590,-134) scale(1,1)"><rect fill="#ffffff" stroke="none" x="896" y="463" width="248" height="209"/></g><g transform="translate(-590,-134) scale(1,1)"><path fill="none" stroke="#000000" d="M 896 463 L 1144 463 L 1144 672 L 896 672 L 896 463 Z Z" stroke-miterlimit="10"/></g><g transform="translate(-590,-134) scale(1,1)"><rect fill="#ffffff" stroke="none" x="896" y="448" width="99.20000000000005" height="15"/></g><g transform="translate(-590,-134) scale(1,1)"><path fill="none" stroke="#000000" d="M 896 448 L 995.2 448 L 995.2 463 L 896 463 L 896 448 Z Z" stroke-miterlimit="10"/></g><g transform="translate(-590,-134) scale(1,1)"><rect fill="#ffffff" stroke="none" x="896" y="462" width="248" height="210"/></g><g transform="translate(-590,-134) scale(1,1)"><path fill="none" stroke="#000000" d="M 896 462 L 1144 462 L 1144 672 L 896 672 L 896 462 Z Z" stroke-miterlimit="10"/></g><g transform="translate(-590,-134) scale(1,1)"><g><path fill="none" stroke="none"/><text fill="#000000" stroke="none" font-family="Arial" font-size="13px" font-style="normal" font-weight="bold" text-decoration="none" x="1002.77880859375" y="482.5">Views</text></g></g><g transform="translate(-590,-134) scale(1,1)"><rect fill="#C0C0C0" stroke="none" x="1151" y="335" width="51.60546875" height="44" opacity="0.2"/></g><g transform="translate(-590,-134) scale(1,1)"><rect fill="#ffffff" stroke="none" x="1144" y="328" width="51.60546875" height="44"/></g><g transform="translate(-590,-134) scale(1,1)"><path fill="none" stroke="#000000" d="M 1144 328 L 1195.60546875 328 L 1195.60546875 372 L 1144 372 L 1144 328 Z Z" stroke-miterlimit="10"/></g><g transform="translate(-590,-134) scale(1,1)"><path fill="none" stroke="#000000" d="M 1144 353 L 1195.60546875 353" stroke-miterlimit="10"/></g><g transform="translate(-590,-134) scale(1,1)"><path fill="none" stroke="#000000" d="M 1144 363 L 1195.60546875 363" stroke-miterlimit="10"/></g><g transform="translate(-590,-134) scale(1,1)"><g><path fill="none" stroke="none"/><text fill="#000000" stroke="none" font-family="Arial" font-size="13px" font-style="normal" font-weight="bold" text-decoration="none" x="1150.286865234375" y="347.5">api.dto</text></g></g><g transform="translate(-590,-134) scale(1,1)"><rect fill="#C0C0C0" stroke="none" x="1127" y="287" width="90.62451171875" height="44" opacity="0.2"/></g><g transform="translate(-590,-134) scale(1,1)"><rect fill="#ffffff" stroke="none" x="1120" y="280" width="90.62451171875" height="44"/></g><g transform="translate(-590,-134) scale(1,1)"><path fill="none" stroke="#000000" d="M 1120 280 L 1210.62451171875 280 L 1210.62451171875 324 L 1120 324 L 1120 280 Z Z" stroke-miterlimit="10"/></g><g transform="translate(-590,-134) scale(1,1)"><path fill="none" stroke="#000000" d="M 1120 305 L 1210.62451171875 305" stroke-miterlimit="10"/></g><g transform="translate(-590,-134) scale(1,1)"><path fill="none" stroke="#000000" d="M 1120 315 L 1210.62451171875 315" stroke-miterlimit="10"/></g><g transform="translate(-590,-134) scale(1,1)"><g><path fill="none" stroke="none"/><text fill="#000000" stroke="none" font-family="Arial" font-size="13px" font-style="normal" font-weight="bold" text-decoration="none" x="1127.73095703125" y="299.5">response.dto</text></g></g><g transform="translate(-590,-134) scale(1,1)"><rect fill="#C0C0C0" stroke="none" x="647" y="295" width="59.644726562499955" height="15" opacity="0.2"/></g><g transform="translate(-590,-134) scale(1,1)"><rect fill="#C0C0C0" stroke="none" x="647" y="309" width="149.11181640625" height="130" opacity="0.2"/></g><g transform="translate(-590,-134) scale(1,1)"><rect fill="#ffffff" stroke="none" x="640" y="303" width="149.11181640625" height="129"/></g><g transform="translate(-590,-134) scale(1,1)"><path fill="none" stroke="#000000" d="M 640 303 L 789.11181640625 303 L 789.11181640625 432 L 640 432 L 640 303 Z Z" stroke-miterlimit="10"/></g><g transform="translate(-590,-134) scale(1,1)"><rect fill="#ffffff" stroke="none" x="640" y="288" width="59.644726562499955" height="15"/></g><g transform="translate(-590,-134) scale(1,1)"><path fill="none" stroke="#000000" d="M 640 288 L 699.6447265625 288 L 699.6447265625 303 L 640 303 L 640 288 Z Z" stroke-miterlimit="10"/></g><g transform="translate(-590,-134) scale(1,1)"><rect fill="#ffffff" stroke="none" x="640" y="302" width="149.11181640625" height="130"/></g><g transform="translate(-590,-134) scale(1,1)"><path fill="none" stroke="#000000" d="M 640 302 L 789.11181640625 302 L 789.11181640625 432 L 640 432 L 640 302 Z Z" stroke-miterlimit="10"/></g><g transform="translate(-590,-134) scale(1,1)"><g><path fill="none" stroke="none"/><text fill="#000000" stroke="none" font-family="Arial" font-size="13px" font-style="normal" font-weight="bold" text-decoration="none" x="669.385986328125" y="322.5">AppComponent</text></g></g><g transform="translate(-590,-134) scale(1,1)"><rect fill="#C0C0C0" stroke="none" x="799" y="295" width="70.39999999999998" height="15" opacity="0.2"/></g><g transform="translate(-590,-134) scale(1,1)"><rect fill="#C0C0C0" stroke="none" x="799" y="309" width="176" height="130" opacity="0.2"/></g><g transform="translate(-590,-134) scale(1,1)"><rect fill="#ffffff" stroke="none" x="792" y="303" width="176" height="129"/></g><g transform="translate(-590,-134) scale(1,1)"><path fill="none" stroke="#000000" d="M 792 303 L 968 303 L 968 432 L 792 432 L 792 303 Z Z" stroke-miterlimit="10"/></g><g transform="translate(-590,-134) scale(1,1)"><rect fill="#ffffff" stroke="none" x="792" y="288" width="70.39999999999998" height="15"/></g><g transform="translate(-590,-134) scale(1,1)"><path fill="none" stroke="#000000" d="M 792 288 L 862.4 288 L 862.4 303 L 792 303 L 792 288 Z Z" stroke-miterlimit="10"/></g><g transform="translate(-590,-134) scale(1,1)"><rect fill="#ffffff" stroke="none" x="792" y="302" width="176" height="130"/></g><g transform="translate(-590,-134) scale(1,1)"><path fill="none" stroke="#000000" d="M 792 302 L 968 302 L 968 432 L 792 432 L 792 302 Z Z" stroke-miterlimit="10"/></g><g transform="translate(-590,-134) scale(1,1)"><g><path fill="none" stroke="none"/><text fill="#000000" stroke="none" font-family="Arial" font-size="13px" font-style="normal" font-weight="bold" text-decoration="none" x="814.596923828125" y="322.5">DashboardComponent</text></g></g><g transform="translate(-590,-134) scale(1,1)"><rect fill="#C0C0C0" stroke="none" x="983" y="279" width="48" height="15" opacity="0.2"/></g><g transform="translate(-590,-134) scale(1,1)"><rect fill="#C0C0C0" stroke="none" x="983" y="293" width="120" height="146" opacity="0.2"/></g><g transform="translate(-590,-134) scale(1,1)"><rect fill="#ffffff" stroke="none" x="976" y="287" width="120" height="145"/></g><g transform="translate(-590,-134) scale(1,1)"><path fill="none" stroke="#000000" d="M 976 287 L 1096 287 L 1096 432 L 976 432 L 976 287 Z Z" stroke-miterlimit="10"/></g><g transform="translate(-590,-134) scale(1,1)"><rect fill="#ffffff" stroke="none" x="976" y="272" width="48" height="15"/></g><g transform="translate(-590,-134) scale(1,1)"><path fill="none" stroke="#000000" d="M 976 272 L 1024 272 L 1024 287 L 976 287 L 976 272 Z Z" stroke-miterlimit="10"/></g><g transform="translate(-590,-134) scale(1,1)"><rect fill="#ffffff" stroke="none" x="976" y="286" width="120" height="146"/></g><g transform="translate(-590,-134) scale(1,1)"><path fill="none" stroke="#000000" d="M 976 286 L 1096 286 L 1096 432 L 976 432 L 976 286 Z Z" stroke-miterlimit="10"/></g><g transform="translate(-590,-134) scale(1,1)"><g><path fill="none" stroke="none"/><text fill="#000000" stroke="none" font-family="Arial" font-size="13px" font-style="normal" font-weight="bold" text-decoration="none" x="986.491455078125" y="306.5">LoginComponent</text></g></g><g transform="translate(-590,-134) scale(1,1)"><rect fill="#C0C0C0" stroke="none" x="671" y="375" width="106.48095703125" height="44" opacity="0.2"/></g><g transform="translate(-590,-134) scale(1,1)"><rect fill="#ffffff" stroke="none" x="664" y="368" width="106.48095703125" height="44"/></g><g transform="translate(-590,-134) scale(1,1)"><path fill="none" stroke="#000000" d="M 664 368 L 770.48095703125 368 L 770.48095703125 412 L 664 412 L 664 368 Z Z" stroke-miterlimit="10"/></g><g transform="translate(-590,-134) scale(1,1)"><path fill="none" stroke="#000000" d="M 664 393 L 770.48095703125 393" stroke-miterlimit="10"/></g><g transform="translate(-590,-134) scale(1,1)"><path fill="none" stroke="#000000" d="M 664 403 L 770.48095703125 403" stroke-miterlimit="10"/></g><g transform="translate(-590,-134) scale(1,1)"><g><path fill="none" stroke="none"/><text fill="#000000" stroke="none" font-family="Arial" font-size="13px" font-style="normal" font-weight="bold" text-decoration="none" x="672.070556640625" y="387.5">AppComponent</text></g></g><g transform="translate(-590,-134) scale(1,1)"><rect fill="#C0C0C0" stroke="none" x="815" y="335" width="149.11181640625" height="44" opacity="0.2"/></g><g transform="translate(-590,-134) scale(1,1)"><rect fill="#ffffff" stroke="none" x="808" y="328" width="149.11181640625" height="44"/></g><g transform="translate(-590,-134) scale(1,1)"><path fill="none" stroke="#000000" d="M 808 328 L 957.11181640625 328 L 957.11181640625 372 L 808 372 L 808 328 Z Z" stroke-miterlimit="10"/></g><g transform="translate(-590,-134) scale(1,1)"><path fill="none" stroke="#000000" d="M 808 353 L 957.11181640625 353" stroke-miterlimit="10"/></g><g transform="translate(-590,-134) scale(1,1)"><path fill="none" stroke="#000000" d="M 808 363 L 957.11181640625 363" stroke-miterlimit="10"/></g><g transform="translate(-590,-134) scale(1,1)"><g><path fill="none" stroke="none"/><text fill="#000000" stroke="none" font-family="Arial" font-size="13px" font-style="normal" font-weight="bold" text-decoration="none" x="817.15283203125" y="347.5">DashboardComponent</text></g></g><g transform="translate(-590,-134) scale(1,1)"><rect fill="#C0C0C0" stroke="none" x="631" y="183" width="50.919921875" height="44" opacity="0.2"/></g><g transform="translate(-590,-134) scale(1,1)"><rect fill="#ffffff" stroke="none" x="624" y="176" width="50.919921875" height="44"/></g><g transform="translate(-590,-134) scale(1,1)"><path fill="none" stroke="#000000" d="M 624 176 L 674.919921875 176 L 674.919921875 220 L 624 220 L 624 176 Z Z" stroke-miterlimit="10"/></g><g transform="translate(-590,-134) scale(1,1)"><path fill="none" stroke="#000000" d="M 624 201 L 674.919921875 201" stroke-miterlimit="10"/></g><g transform="translate(-590,-134) scale(1,1)"><path fill="none" stroke="#000000" d="M 624 211 L 674.919921875 211" stroke-miterlimit="10"/></g><g transform="translate(-590,-134) scale(1,1)"><g><path fill="none" stroke="none"/><text fill="#000000" stroke="none" font-family="Arial" font-size="13px" font-style="normal" font-weight="bold" text-decoration="none" x="633.9208984375" y="195.5">index</text></g></g><g transform="translate(-590,-134) scale(1,1)"><rect fill="#C0C0C0" stroke="none" x="983" y="375" width="116.58642578125" height="44" opacity="0.2"/></g><g transform="translate(-590,-134) scale(1,1)"><rect fill="#ffffff" stroke="none" x="976" y="368" width="116.58642578125" height="44"/></g><g transform="translate(-590,-134) scale(1,1)"><path fill="none" stroke="#000000" d="M 976 368 L 1092.58642578125 368 L 1092.58642578125 412 L 976 412 L 976 368 Z Z" stroke-miterlimit="10"/></g><g transform="translate(-590,-134) scale(1,1)"><path fill="none" stroke="#000000" d="M 976 393 L 1092.58642578125 393" stroke-miterlimit="10"/></g><g transform="translate(-590,-134) scale(1,1)"><path fill="none" stroke="#000000" d="M 976 403 L 1092.58642578125 403" stroke-miterlimit="10"/></g><g transform="translate(-590,-134) scale(1,1)"><g><path fill="none" stroke="none"/><text fill="#000000" stroke="none" font-family="Arial" font-size="13px" font-style="normal" font-weight="bold" text-decoration="none" x="984.78466796875" y="387.5">LoginComponent</text></g></g><g transform="translate(-590,-134) scale(1,1)"><path fill="none" stroke="#000000" d="M 657 221 L 709 367" stroke-miterlimit="10"/></g><g transform="translate(-590,-134) scale(1,1)"><path fill="none" stroke="#000000" d="M 701.6247248566754 358.83879196685575 L 709 367 L 709.555738475949 356.01404739012816" stroke-miterlimit="10"/></g><g transform="translate(-590,-134) scale(1,1)"><g><path fill="none" stroke="none"/><text fill="#000000" stroke="none" font-family="Arial" font-size="13px" font-style="normal" font-weight="normal" text-decoration="none" x="661.5" y="294.5">+«Includes»</text></g></g><g transform="translate(-590,-134) scale(1,1)"><rect fill="#C0C0C0" stroke="none" x="919" y="479" width="106.29052734375" height="44" opacity="0.2"/></g><g transform="translate(-590,-134) scale(1,1)"><rect fill="#ffffff" stroke="none" x="912" y="472" width="106.29052734375" height="44"/></g><g transform="translate(-590,-134) scale(1,1)"><path fill="none" stroke="#000000" d="M 912 472 L 1018.29052734375 472 L 1018.29052734375 516 L 912 516 L 912 472 Z Z" stroke-miterlimit="10"/></g><g transform="translate(-590,-134) scale(1,1)"><path fill="none" stroke="#000000" d="M 912 497 L 1018.29052734375 497" stroke-miterlimit="10"/></g><g transform="translate(-590,-134) scale(1,1)"><path fill="none" stroke="#000000" d="M 912 507 L 1018.29052734375 507" stroke-miterlimit="10"/></g><g transform="translate(-590,-134) scale(1,1)"><g><path fill="none" stroke="none"/><text fill="#000000" stroke="none" font-family="Arial" font-size="13px" font-style="normal" font-weight="bold" text-decoration="none" x="919.37548828125" y="491.5">DashboardView</text></g></g><g transform="translate(-590,-134) scale(1,1)"><rect fill="#C0C0C0" stroke="none" x="1071" y="503" width="73.76513671875" height="44" opacity="0.2"/></g><g transform="translate(-590,-134) scale(1,1)"><rect fill="#ffffff" stroke="none" x="1064" y="496" width="73.76513671875" height="44"/></g><g transform="translate(-590,-134) scale(1,1)"><path fill="none" stroke="#000000" d="M 1064 496 L 1137.76513671875 496 L 1137.76513671875 540 L 1064 540 L 1064 496 Z Z" stroke-miterlimit="10"/></g><g transform="translate(-590,-134) scale(1,1)"><path fill="none" stroke="#000000" d="M 1064 521 L 1137.76513671875 521" stroke-miterlimit="10"/></g><g transform="translate(-590,-134) scale(1,1)"><path fill="none" stroke="#000000" d="M 1064 531 L 1137.76513671875 531" stroke-miterlimit="10"/></g><g transform="translate(-590,-134) scale(1,1)"><g><path fill="none" stroke="none"/><text fill="#000000" stroke="none" font-family="Arial" font-size="13px" font-style="normal" font-weight="bold" text-decoration="none" x="1071.00732421875" y="515.5">LoginView</text></g></g><g transform="translate(-590,-134) scale(1,1)"><rect fill="#C0C0C0" stroke="none" x="919" y="559" width="68.0078125" height="44" opacity="0.2"/></g><g transform="translate(-590,-134) scale(1,1)"><rect fill="#ffffff" stroke="none" x="912" y="552" width="68.0078125" height="44"/></g><g transform="translate(-590,-134) scale(1,1)"><path fill="none" stroke="#000000" d="M 912 552 L 980.0078125 552 L 980.0078125 596 L 912 596 L 912 552 Z Z" stroke-miterlimit="10"/></g><g transform="translate(-590,-134) scale(1,1)"><path fill="none" stroke="#000000" d="M 912 577 L 980.0078125 577" stroke-miterlimit="10"/></g><g transform="translate(-590,-134) scale(1,1)"><path fill="none" stroke="#000000" d="M 912 587 L 980.0078125 587" stroke-miterlimit="10"/></g><g transform="translate(-590,-134) scale(1,1)"><g><path fill="none" stroke="none"/><text fill="#000000" stroke="none" font-family="Arial" font-size="13px" font-style="normal" font-weight="bold" text-decoration="none" x="917.944091796875" y="571.5">CardView</text></g></g><g transform="translate(-590,-134) scale(1,1)"><rect fill="#C0C0C0" stroke="none" x="999" y="559" width="76.67236328125" height="44" opacity="0.2"/></g><g transform="translate(-590,-134) scale(1,1)"><rect fill="#ffffff" stroke="none" x="992" y="552" width="76.67236328125" height="44"/></g><g transform="translate(-590,-134) scale(1,1)"><path fill="none" stroke="#000000" d="M 992 552 L 1068.67236328125 552 L 1068.67236328125 596 L 992 596 L 992 552 Z Z" stroke-miterlimit="10"/></g><g transform="translate(-590,-134) scale(1,1)"><path fill="none" stroke="#000000" d="M 992 577 L 1068.67236328125 577" stroke-miterlimit="10"/></g><g transform="translate(-590,-134) scale(1,1)"><path fill="none" stroke="#000000" d="M 992 587 L 1068.67236328125 587" stroke-miterlimit="10"/></g><g transform="translate(-590,-134) scale(1,1)"><g><path fill="none" stroke="none"/><text fill="#000000" stroke="none" font-family="Arial" font-size="13px" font-style="normal" font-weight="bold" text-decoration="none" x="998.299560546875" y="571.5">GraphView</text></g></g><g transform="translate(-590,-134) scale(1,1)"><rect fill="#C0C0C0" stroke="none" x="919" y="615" width="71.37841796875" height="44" opacity="0.2"/></g><g transform="translate(-590,-134) scale(1,1)"><rect fill="#ffffff" stroke="none" x="912" y="608" width="71.37841796875" height="44"/></g><g transform="translate(-590,-134) scale(1,1)"><path fill="none" stroke="#000000" d="M 912 608 L 983.37841796875 608 L 983.37841796875 652 L 912 652 L 912 608 Z Z" stroke-miterlimit="10"/></g><g transform="translate(-590,-134) scale(1,1)"><path fill="none" stroke="#000000" d="M 912 633 L 983.37841796875 633" stroke-miterlimit="10"/></g><g transform="translate(-590,-134) scale(1,1)"><path fill="none" stroke="#000000" d="M 912 643 L 983.37841796875 643" stroke-miterlimit="10"/></g><g transform="translate(-590,-134) scale(1,1)"><g><path fill="none" stroke="none"/><text fill="#000000" stroke="none" font-family="Arial" font-size="13px" font-style="normal" font-weight="bold" text-decoration="none" x="918.178955078125" y="627.5">TableView</text></g></g><g transform="translate(-590,-134) scale(1,1)"><rect fill="#C0C0C0" stroke="none" x="999" y="615" width="67.296875" height="44" opacity="0.2"/></g><g transform="translate(-590,-134) scale(1,1)"><rect fill="#ffffff" stroke="none" x="992" y="608" width="67.296875" height="44"/></g><g transform="translate(-590,-134) scale(1,1)"><path fill="none" stroke="#000000" d="M 992 608 L 1059.296875 608 L 1059.296875 652 L 992 652 L 992 608 Z Z" stroke-miterlimit="10"/></g><g transform="translate(-590,-134) scale(1,1)"><path fill="none" stroke="#000000" d="M 992 633 L 1059.296875 633" stroke-miterlimit="10"/></g><g transform="translate(-590,-134) scale(1,1)"><path fill="none" stroke="#000000" d="M 992 643 L 1059.296875 643" stroke-miterlimit="10"/></g><g transform="translate(-590,-134) scale(1,1)"><g><path fill="none" stroke="none"/><text fill="#000000" stroke="none" font-family="Arial" font-size="13px" font-style="normal" font-weight="bold" text-decoration="none" x="997.95361328125" y="627.5">UserView</text></g></g><g transform="translate(-590,-134) scale(1,1)"><rect fill="#C0C0C0" stroke="none" x="631" y="479" width="76.79999999999995" height="15" opacity="0.2"/></g><g transform="translate(-590,-134) scale(1,1)"><rect fill="#C0C0C0" stroke="none" x="631" y="493" width="192" height="98" opacity="0.2"/></g><g transform="translate(-590,-134) scale(1,1)"><rect fill="#ffffff" stroke="none" x="624" y="487" width="192" height="97"/></g><g transform="translate(-590,-134) scale(1,1)"><path fill="none" stroke="#000000" d="M 624 487 L 816 487 L 816 584 L 624 584 L 624 487 Z Z" stroke-miterlimit="10"/></g><g transform="translate(-590,-134) scale(1,1)"><rect fill="#ffffff" stroke="none" x="624" y="472" width="76.79999999999995" height="15"/></g><g transform="translate(-590,-134) scale(1,1)"><path fill="none" stroke="#000000" d="M 624 472 L 700.8 472 L 700.8 487 L 624 487 L 624 472 Z Z" stroke-miterlimit="10"/></g><g transform="translate(-590,-134) scale(1,1)"><rect fill="#ffffff" stroke="none" x="624" y="486" width="192" height="98"/></g><g transform="translate(-590,-134) scale(1,1)"><path fill="none" stroke="#000000" d="M 624 486 L 816 486 L 816 584 L 624 584 L 624 486 Z Z" stroke-miterlimit="10"/></g><g transform="translate(-590,-134) scale(1,1)"><g><path fill="none" stroke="none"/><text fill="#000000" stroke="none" font-family="Arial" font-size="13px" font-style="normal" font-weight="bold" text-decoration="none" x="683.872314453125" y="506.5">Repositories</text></g></g><g transform="translate(-590,-134) scale(1,1)"><rect fill="#C0C0C0" stroke="none" x="655" y="527" width="138.28271484375" height="44" opacity="0.2"/></g><g transform="translate(-590,-134) scale(1,1)"><rect fill="#ffffff" stroke="none" x="648" y="520" width="138.28271484375" height="44"/></g><g transform="translate(-590,-134) scale(1,1)"><path fill="none" stroke="#000000" d="M 648 520 L 786.28271484375 520 L 786.28271484375 564 L 648 564 L 648 520 Z Z" stroke-miterlimit="10"/></g><g transform="translate(-590,-134) scale(1,1)"><path fill="none" stroke="#000000" d="M 648 545 L 786.28271484375 545" stroke-miterlimit="10"/></g><g transform="translate(-590,-134) scale(1,1)"><path fill="none" stroke="#000000" d="M 648 555 L 786.28271484375 555" stroke-miterlimit="10"/></g><g transform="translate(-590,-134) scale(1,1)"><g><path fill="none" stroke="none"/><text fill="#000000" stroke="none" font-family="Arial" font-size="13px" font-style="normal" font-weight="bold" text-decoration="none" x="657.88916015625" y="539.5">ReportingRepository</text></g></g><g transform="translate(-590,-134) scale(1,1)"><path fill="none" stroke="#000000" d="M 771 377 L 807 368" stroke-miterlimit="10"/></g><g transform="translate(-590,-134) scale(1,1)"><path fill="none" stroke="#000000" d="M 798.1617152255172 374.5486427788624 L 807 368 L 796.1197991854035 366.38097861840737" stroke-miterlimit="10"/></g><g transform="translate(-590,-134) scale(1,1)"><g><path fill="none" stroke="none"/><text fill="#000000" stroke="none" font-family="Arial" font-size="13px" font-style="normal" font-weight="normal" text-decoration="none" x="749.5" y="363.5">+«Includes»</text></g></g><g transform="translate(-590,-134) scale(1,1)"><path fill="none" stroke="#000000" d="M 771 390 L 975 390" stroke-miterlimit="10"/></g><g transform="translate(-590,-134) scale(1,1)"><path fill="none" stroke="#000000" d="M 964.8373251423759 394.209517756016 L 975 390 L 964.8373251423758 385.790482243984" stroke-miterlimit="10"/></g><g transform="translate(-590,-134) scale(1,1)"><g><path fill="none" stroke="none"/><text fill="#000000" stroke="none" font-family="Arial" font-size="13px" font-style="normal" font-weight="normal" text-decoration="none" x="837.5" y="381.5">+«Includes»</text></g></g><g transform="translate(-590,-134) scale(1,1)"><path fill="none" stroke="#000000" d="M 958 337 L 1119 310" stroke-miterlimit="10"/></g><g transform="translate(-590,-134) scale(1,1)"><path fill="none" stroke="#000000" d="M 1109.673508480275 315.8323713815649 L 1119 310 L 1108.2810652474207 307.5292839560265" stroke-miterlimit="10"/></g><g transform="translate(-590,-134) scale(1,1)"><g><path fill="none" stroke="none"/><text fill="#000000" stroke="none" font-family="Arial" font-size="13px" font-style="normal" font-weight="normal" text-decoration="none" x="999.5" y="314.5">+«Includes»</text></g></g><g transform="translate(-590,-134) scale(1,1)"><path fill="none" stroke="#000000" d="M 958 350 L 1143 350" stroke-miterlimit="10"/></g><g transform="translate(-590,-134) scale(1,1)"><path fill="none" stroke="#000000" d="M 1132.837325142376 354.209517756016 L 1143 350 L 1132.837325142376 345.790482243984" stroke-miterlimit="10"/></g><g transform="translate(-590,-134) scale(1,1)"><g><path fill="none" stroke="none"/><text fill="#000000" stroke="none" font-family="Arial" font-size="13px" font-style="normal" font-weight="normal" text-decoration="none" x="1014.5" y="341.5">+«Includes»</text></g></g><g transform="translate(-590,-134) scale(1,1)"><path fill="none" stroke="#000000" d="M 1094 372 L 1143 358" stroke-miterlimit="10"/></g><g transform="translate(-590,-134) scale(1,1)"><path fill="none" stroke="#000000" d="M 1134.3847882181437 364.8394536297695 L 1143 358 L 1132.0719012864704 356.7443493689122" stroke-miterlimit="10"/></g><g transform="translate(-590,-134) scale(1,1)"><g><path fill="none" stroke="none"/><text fill="#000000" stroke="none" font-family="Arial" font-size="13px" font-style="normal" font-weight="normal" text-decoration="none" x="1077.5" y="356.5">+«Includes»</text></g></g><g transform="translate(-590,-134) scale(1,1)"><path fill="none" stroke="#000000" d="M 862 373 L 737 519" stroke-miterlimit="10"/></g><g transform="translate(-590,-134) scale(1,1)"><path fill="none" stroke="#000000" d="M 740.41177598716 508.5424771282374 L 737 519 L 746.807075273447 514.0179045993735" stroke-miterlimit="10"/></g><g transform="translate(-590,-134) scale(1,1)"><g><path fill="none" stroke="none"/><text fill="#000000" stroke="none" font-family="Arial" font-size="13px" font-style="normal" font-weight="normal" text-decoration="none" x="820.5" y="408.5">+«Includes»</text></g></g><g transform="translate(-590,-134) scale(1,1)"><path fill="none" stroke="#000000" d="M 895 373 L 952 471" stroke-miterlimit="10"/></g><g transform="translate(-590,-134) scale(1,1)"><path fill="none" stroke="#000000" d="M 943.2516906810329 464.3316355783691 L 952 471 L 950.5292568585992 460.09876545468256" stroke-miterlimit="10"/></g><g transform="translate(-590,-134) scale(1,1)"><g><path fill="none" stroke="none"/><text fill="#000000" stroke="none" font-family="Arial" font-size="13px" font-style="normal" font-weight="normal" text-decoration="none" x="899.5" y="420.5">+«Includes»</text></g></g><g transform="translate(-590,-134) scale(1,1)"><path fill="none" stroke="#000000" d="M 1046 413 L 1088 495" stroke-miterlimit="10"/></g><g transform="translate(-590,-134) scale(1,1)"><path fill="none" stroke="#000000" d="M 1079.6204284117318 487.8737962422418 L 1088 495 L 1087.1137351077252 484.0357611052695" stroke-miterlimit="10"/></g><g transform="translate(-590,-134) scale(1,1)"><g><path fill="none" stroke="none"/><text fill="#000000" stroke="none" font-family="Arial" font-size="13px" font-style="normal" font-weight="normal" text-decoration="none" x="1044.5" y="453.5">+«Includes»</text></g></g><g transform="translate(-590,-134) scale(1,1)"><path fill="none" stroke="#000000" d="M 960 517 L 951 551" stroke-miterlimit="10"/></g><g transform="translate(-590,-134) scale(1,1)"><path fill="none" stroke="#000000" d="M 949.5311900674628 540.0985048097942 L 951 551 L 957.6699157104958 542.2528733623618" stroke-miterlimit="10"/></g><g transform="translate(-590,-134) scale(1,1)"><path fill="none" stroke="#000000" d="M 984 517 L 1011 551" stroke-miterlimit="10"/></g><g transform="translate(-590,-134) scale(1,1)"><path fill="none" stroke="#000000" d="M 1001.3834949573419 545.6593230050365 L 1011 551 L 1007.9765329922875 540.4236751537562" stroke-miterlimit="10"/></g><g transform="translate(-590,-134) scale(1,1)"><path fill="none" stroke="#000000" d="M 962 517 L 950 607" stroke-miterlimit="10"/></g><g transform="translate(-590,-134) scale(1,1)"><path fill="none" stroke="#000000" d="M 947.1705454670771 596.3701276091327 L 950 607 L 955.5157283634411 597.4828186619812" stroke-miterlimit="10"/></g><g transform="translate(-590,-134) scale(1,1)"><g><path fill="none" stroke="none"/><text fill="#000000" stroke="none" font-family="Arial" font-size="13px" font-style="normal" font-weight="normal" text-decoration="none" x="937.5" y="550.5">+«Includes»</text></g></g><g transform="translate(-590,-134) scale(1,1)"><path fill="none" stroke="#000000" d="M 975 517 L 1015 607" stroke-miterlimit="10"/></g><g transform="translate(-590,-134) scale(1,1)"><path fill="none" stroke="#000000" d="M 1007.0258408827551 599.4228774344834 L 1015 607 L 1014.719252761894 596.0035832659772" stroke-miterlimit="10"/></g></g></svg>